<svg width="24" height="24" viewBox="0 0 24 24" fill="none" xmlns="http://www.w3.org/2000/svg">
<path fill-rule="evenodd" clip-rule="evenodd" d="M12 2C6.48 2 2 6.48 2 12C2 17.52 6.48 22 12 22C17.52 22 22 17.52 22 12C22 6.48 17.52 2 12 2ZM15.61 8.34C16.68 8.34 17.54 9.2 17.54 10.27C17.54 11.34 16.68 12.2 15.61 12.2C14.54 12.2 13.68 11.34 13.68 10.27C13.67 9.2 14.54 8.34 15.61 8.34ZM9.61 6.76C10.91 6.76 11.97 7.82 11.97 9.12C11.97 10.42 10.91 11.48 9.61 11.48C8.31 11.48 7.25 10.42 7.25 9.12C7.25 7.81 8.3 6.76 9.61 6.76ZM9.60875 15.8902V19.6402C7.20875 18.8902 5.30875 17.0402 4.46875 14.6802C5.51875 13.5602 8.13875 12.9902 9.60875 12.9902C10.1388 12.9902 10.8088 13.0702 11.5087 13.2102C9.86875 14.0802 9.60875 15.2302 9.60875 15.8902ZM12.0009 19.9998C11.7309 19.9998 11.4709 19.9898 11.2109 19.9598V15.8898C11.2109 14.4698 14.1509 13.7598 15.6109 13.7598C16.6809 13.7598 18.5309 14.1498 19.4509 14.9098C18.2809 17.8798 15.3909 19.9998 12.0009 19.9998Z" fill="#64666C"/>
</svg>
