<svg width="24" height="24" viewBox="0 0 24 24" fill="none" xmlns="http://www.w3.org/2000/svg">
<path d="M17.1667 12.832C14.8655 12.832 13 14.6975 13 16.9987C13 19.2999 14.8655 21.1654 17.1667 21.1654C19.4679 21.1654 21.3334 19.2999 21.3334 16.9987C21.3334 14.6975 19.4679 12.832 17.1667 12.832ZM16.9167 19.2487C16.5927 19.5663 16.0741 19.5663 15.75 19.2487L14.0833 17.582L15.25 16.4154L16.3333 17.4987L19.0833 14.7487L20.25 15.9154L16.9167 19.2487Z" fill="#64666C"/>
<path d="M12.1667 17C12.1667 14.2386 14.4053 12 17.1667 12H18V2.83332C18 2.37309 17.6269 2 17.1667 2H3.83336C3.37313 2 3 2.37309 3 2.83332V21.1667C3 21.6269 3.37309 22 3.83332 22H17.1667C14.4053 22 12.1667 19.7615 12.1667 17ZM8.83337 5.33333H14.6667V7.00001H8.83337V5.33333ZM8.83337 9.50002H13.0001V11.1667H8.83337V9.50002ZM6.33337 15.3333C5.87313 15.3333 5.50004 14.9603 5.50004 14.5C5.50004 14.0398 5.87313 13.6667 6.33337 13.6667C6.7936 13.6667 7.16669 14.0398 7.16669 14.5C7.16669 14.9603 6.7936 15.3333 6.33337 15.3333ZM6.33337 11.1667C5.87313 11.1667 5.50004 10.7936 5.50004 10.3334C5.50004 9.87314 5.87313 9.50005 6.33337 9.50005C6.7936 9.50005 7.16669 9.87314 7.16669 10.3334C7.16669 10.7936 6.7936 11.1667 6.33337 11.1667ZM6.33337 7.00001C5.87313 7.00001 5.50004 6.62692 5.50004 6.16669C5.50004 5.70645 5.87313 5.33337 6.33337 5.33337C6.7936 5.33337 7.16669 5.70645 7.16669 6.16669C7.16669 6.62692 6.7936 7.00001 6.33337 7.00001ZM11.3334 15.3333H8.83337V13.6667H11.3334V15.3333Z" fill="#64666C"/>
</svg>
