<svg width="42" height="43" viewBox="0 0 42 43" fill="none" xmlns="http://www.w3.org/2000/svg">
<path d="M6.24304 32.3201C8.06215 32.3201 9.53681 30.8522 9.53681 29.0414C9.53681 27.2306 8.06215 25.7627 6.24304 25.7627C4.42392 25.7627 2.94922 27.2306 2.94922 29.0414C2.94922 30.8522 4.42392 32.3201 6.24304 32.3201Z" stroke="#148160" stroke-width="2" stroke-miterlimit="10" stroke-linecap="round" stroke-linejoin="round"/>
<path d="M10.2587 40.7947C11.0289 40.4997 11.5205 39.7784 11.5205 38.9587V37.5652C11.5205 33.6308 9.11161 32.3193 6.78464 32.3193H5.73585C3.40888 32.3193 1 33.6308 1 37.5652V38.9587C1 39.7784 1.50799 40.4997 2.2618 40.7947C3.16309 41.139 4.53958 41.4997 6.26023 41.4997C7.98087 41.4997 9.34102 41.139 10.2587 40.7947Z" stroke="#148160" stroke-width="2" stroke-miterlimit="10" stroke-linecap="round" stroke-linejoin="round"/>
<path d="M35.0848 32.3201C36.9039 32.3201 38.3786 30.8522 38.3786 29.0414C38.3786 27.2306 36.9039 25.7627 35.0848 25.7627C33.2657 25.7627 31.791 27.2306 31.791 29.0414C31.791 30.8522 33.2657 32.3201 35.0848 32.3201Z" stroke="#148160" stroke-width="2" stroke-miterlimit="10" stroke-linecap="round" stroke-linejoin="round"/>
<path d="M31.086 40.7947C30.3158 40.4997 29.8242 39.7784 29.8242 38.9587V37.5652C29.8242 33.6308 32.2331 32.3193 34.5601 32.3193H35.6089C37.9358 32.3193 40.3447 33.6308 40.3447 37.5652V38.9587C40.3447 39.7784 39.8367 40.4997 39.0829 40.7947C38.1816 41.139 36.8051 41.4997 35.0845 41.4997C33.3638 41.4997 31.9873 41.139 31.086 40.7947Z" stroke="#148160" stroke-width="2" stroke-miterlimit="10" stroke-linecap="round" stroke-linejoin="round"/>
<path d="M20.6649 8.05738C22.484 8.05738 23.9587 6.58946 23.9587 4.77869C23.9587 2.96792 22.484 1.5 20.6649 1.5C18.8458 1.5 17.3711 2.96792 17.3711 4.77869C17.3711 6.58946 18.8458 8.05738 20.6649 8.05738Z" stroke="#148160" stroke-width="2" stroke-miterlimit="10" stroke-linecap="round" stroke-linejoin="round"/>
<path d="M24.6786 16.533C25.4488 16.2379 25.9404 15.5166 25.9404 14.697V13.3035C25.9404 9.36909 23.5315 8.05762 21.2046 8.05762H20.1558C17.8288 8.05762 15.4199 9.36909 15.4199 13.3035V14.697C15.4199 15.5166 15.9279 16.2379 16.6817 16.533C17.583 16.8773 18.9595 17.2379 20.6801 17.2379C22.4008 17.2379 23.7609 16.8773 24.6786 16.533Z" stroke="#148160" stroke-width="2" stroke-miterlimit="10" stroke-linecap="round" stroke-linejoin="round"/>
<path d="M20.6641 28.2219V19.6973" stroke="#148160" stroke-width="2" stroke-miterlimit="10" stroke-linecap="round" stroke-linejoin="round"/>
<path d="M20.8611 28.4344L28.2353 32.6967" stroke="#148160" stroke-width="2" stroke-miterlimit="10" stroke-linecap="round" stroke-linejoin="round"/>
<path d="M20.5656 28.5L13.1914 32.7623" stroke="#148160" stroke-width="2" stroke-miterlimit="10" stroke-linecap="round" stroke-linejoin="round"/>
</svg>
