<svg width="42" height="42" viewBox="0 0 42 42" fill="none" xmlns="http://www.w3.org/2000/svg">
<path d="M10.1242 26.6484C12.2169 26.6484 13.9133 24.9597 13.9133 22.8766C13.9133 20.7935 12.2169 19.1048 10.1242 19.1048C8.03144 19.1048 6.33496 20.7935 6.33496 22.8766C6.33496 24.9597 8.03144 26.6484 10.1242 26.6484Z" stroke="#148160" stroke-width="2" stroke-miterlimit="10" stroke-linecap="round" stroke-linejoin="round"/>
<path d="M8.59724 31.9287L10.1242 35.9834C10.5767 37.1715 11.7078 37.9636 12.9897 37.9636H18.3624C19.2484 37.9636 19.9648 37.2469 19.9648 36.3605C19.9648 35.5496 19.3616 34.8707 18.5509 34.7764L14.4036 34.2672C14.1019 34.2295 13.838 34.022 13.7626 33.7203C13.5175 32.7962 12.952 30.816 12.3676 29.6844C11.6135 28.1757 10.8594 26.667 8.20135 26.667C4.78919 26.667 4.03512 28.9301 3.28106 31.9475C2.52699 34.965 1 40.9999 1 40.9999" stroke="#148160" stroke-width="2" stroke-miterlimit="10" stroke-linecap="round" stroke-linejoin="round"/>
<path d="M10.878 37.2093L10.1428 40.9811" stroke="#148160" stroke-width="2" stroke-miterlimit="10" stroke-linecap="round" stroke-linejoin="round"/>
<path d="M15.4214 37.9636H39.5516" stroke="#148160" stroke-width="2" stroke-miterlimit="10" stroke-linecap="round" stroke-linejoin="round"/>
<path d="M24.4515 8.54362C25.7113 8.54362 26.7325 7.53041 26.7325 6.28054C26.7325 5.03067 25.7113 4.01746 24.4515 4.01746C23.1917 4.01746 22.1704 5.03067 22.1704 6.28054C22.1704 7.53041 23.1917 8.54362 24.4515 8.54362Z" stroke="#148160" stroke-width="2" stroke-miterlimit="10" stroke-linecap="round" stroke-linejoin="round"/>
<path d="M20.7 13.824V12.9754C20.7 9.6562 22.4343 8.54352 24.0933 8.54352H24.8473C26.5063 8.54352 28.2406 9.6562 28.2406 12.9754V13.824" stroke="#148160" stroke-width="2" stroke-miterlimit="10" stroke-linecap="round" stroke-linejoin="round"/>
<path d="M11.6506 10.0523V3.26308C11.6506 2.01839 12.6686 1 13.9128 1H23.7157" stroke="#148160" stroke-width="2" stroke-miterlimit="10" stroke-linecap="round" stroke-linejoin="round"/>
<path d="M11.6506 10.0523V14.5785C11.6506 15.8232 12.6686 16.8416 13.9128 16.8416H28.2401L32.7645 21.3678V16.8416H35.7808C37.025 16.8416 38.043 15.8232 38.043 14.5785V3.26308C38.043 2.01839 37.025 1 35.7808 1H23.7157" stroke="#148160" stroke-width="2" stroke-miterlimit="10" stroke-linecap="round" stroke-linejoin="round"/>
<path d="M22.2085 34.1918L25.9788 24.3851H40.3061L36.5358 34.1918H22.2085Z" stroke="#148160" stroke-width="2" stroke-miterlimit="10" stroke-linecap="round" stroke-linejoin="round"/>
<path d="M28.9949 37.9636V34.1918" stroke="#148160" stroke-width="2" stroke-miterlimit="10" stroke-linecap="round" stroke-linejoin="round"/>
</svg>
