<svg width="43" height="43" viewBox="0 0 43 43" fill="none" xmlns="http://www.w3.org/2000/svg">
<path d="M6.15866 20.2094C7.94844 20.2094 9.39931 18.7652 9.39931 16.9836C9.39931 15.2021 7.94844 13.7578 6.15866 13.7578C4.36888 13.7578 2.91797 15.2021 2.91797 16.9836C2.91797 18.7652 4.36888 20.2094 6.15866 20.2094Z" stroke="#148160" stroke-width="2" stroke-miterlimit="10" stroke-linecap="round" stroke-linejoin="round"/>
<path d="M10.1094 27.9033C10.8671 27.6129 11.3508 26.9033 11.3508 26.0968V25.371C11.3508 21.5 8.98078 20.2097 6.69134 20.2097H5.65946C3.37003 20.2097 1 21.5 1 25.371V26.0968C1 26.9033 1.4998 27.6129 2.24144 27.9033C3.1282 28.242 4.48249 28.5968 6.17538 28.5968C7.86827 28.5968 9.20649 28.242 10.1094 27.9033Z" stroke="#148160" stroke-width="2" stroke-miterlimit="10" stroke-linecap="round" stroke-linejoin="round"/>
<path d="M21.0571 33.1127C22.8468 33.1127 24.2977 31.6685 24.2977 29.8869C24.2977 28.1054 22.8468 26.6611 21.0571 26.6611C19.2673 26.6611 17.8164 28.1054 17.8164 29.8869C17.8164 31.6685 19.2673 33.1127 21.0571 33.1127Z" stroke="#148160" stroke-width="2" stroke-miterlimit="10" stroke-linecap="round" stroke-linejoin="round"/>
<path d="M24.9902 40.8059C25.748 40.5155 26.2317 39.8059 26.2317 38.9994V38.2736C26.2317 34.4026 23.8616 33.1123 21.5722 33.1123H20.5403C18.2509 33.1123 15.8809 34.4026 15.8809 38.2736V38.9994C15.8809 39.8059 16.3807 40.5155 17.1223 40.8059C18.0091 41.1446 19.3634 41.4994 21.0562 41.4994C22.7491 41.4994 24.0873 41.1446 24.9902 40.8059Z" stroke="#148160" stroke-width="2" stroke-miterlimit="10" stroke-linecap="round" stroke-linejoin="round"/>
<path d="M21.0571 7.95161C22.8468 7.95161 24.2977 6.50737 24.2977 4.72581C24.2977 2.94424 22.8468 1.5 21.0571 1.5C19.2673 1.5 17.8164 2.94424 17.8164 4.72581C17.8164 6.50737 19.2673 7.95161 21.0571 7.95161Z" stroke="#148160" stroke-width="2" stroke-miterlimit="10" stroke-linecap="round" stroke-linejoin="round"/>
<path d="M24.9902 15.6447C25.748 15.3544 26.2317 14.6447 26.2317 13.8383V13.1125C26.2317 9.24149 23.8616 7.95117 21.5722 7.95117H20.5403C18.2509 7.95117 15.8809 9.24149 15.8809 13.1125V13.8383C15.8809 14.6447 16.3807 15.3544 17.1223 15.6447C18.0091 15.9834 19.3634 16.3383 21.0562 16.3383C22.7491 16.3383 24.0873 15.9834 24.9902 15.6447Z" stroke="#148160" stroke-width="2" stroke-miterlimit="10" stroke-linecap="round" stroke-linejoin="round"/>
<path d="M35.8247 20.2094C37.6145 20.2094 39.0653 18.7652 39.0653 16.9836C39.0653 15.2021 37.6145 13.7578 35.8247 13.7578C34.0349 13.7578 32.584 15.2021 32.584 16.9836C32.584 18.7652 34.0349 20.2094 35.8247 20.2094Z" stroke="#148160" stroke-width="2" stroke-miterlimit="10" stroke-linecap="round" stroke-linejoin="round"/>
<path d="M39.7754 27.9033C40.5331 27.6129 41.0168 26.9033 41.0168 26.0968V25.371C41.0168 21.5 38.6468 20.2097 36.3574 20.2097H35.3255C33.036 20.2097 30.666 21.5 30.666 25.371V26.0968C30.666 26.9033 31.1658 27.6129 31.9075 27.9033C32.7942 28.242 34.1485 28.5968 35.8414 28.5968C37.5343 28.5968 38.8725 28.242 39.7754 27.9033Z" stroke="#148160" stroke-width="2" stroke-miterlimit="10" stroke-linecap="round" stroke-linejoin="round"/>
<path d="M34.2767 31.5645C32.8095 33.5483 30.9232 35.1935 28.7305 36.3548" stroke="#148160" stroke-width="2" stroke-miterlimit="10" stroke-linecap="round" stroke-linejoin="round"/>
<path d="M8.28711 11.4188C10.0445 9.27366 12.3178 7.59624 14.9297 6.54785" stroke="#148160" stroke-width="2" stroke-miterlimit="10" stroke-linecap="round" stroke-linejoin="round"/>
<path d="M13.3177 36.3548C11.125 35.1935 9.23866 33.5483 7.77148 31.5645" stroke="#148160" stroke-width="2" stroke-miterlimit="10" stroke-linecap="round" stroke-linejoin="round"/>
<path d="M27.1191 6.54785C29.731 7.59624 32.0043 9.27366 33.7617 11.4188" stroke="#148160" stroke-width="2" stroke-miterlimit="10" stroke-linecap="round" stroke-linejoin="round"/>
</svg>
