<svg width="42" height="42" viewBox="0 0 42 42" fill="none" xmlns="http://www.w3.org/2000/svg">
<path d="M24.6022 17.313C26.8874 19.5808 26.8874 23.2751 24.6022 25.5429C22.317 27.8107 18.6241 27.8107 16.3389 25.5429C14.0537 23.2751 14.0537 19.5808 16.3389 17.313C17.8563 15.7951 20.0135 15.3013 21.9514 15.8134" stroke="#148160" stroke-width="2" stroke-miterlimit="10" stroke-linecap="round" stroke-linejoin="round"/>
<path d="M29.4277 12.5221C34.3637 17.4418 34.3637 25.4156 29.4277 30.3352C24.4917 35.2549 16.4661 35.2549 11.5301 30.3352C6.59412 25.4156 6.59412 17.4418 11.5301 12.5221C15.7532 8.31574 22.2248 7.71221 27.106 10.7115" stroke="#148160" stroke-width="2" stroke-miterlimit="10" stroke-linecap="round" stroke-linejoin="round"/>
<path d="M28.7514 3.87123C21.5302 0.506116 12.6636 1.78632 6.70384 7.71184C-0.901279 15.2833 -0.901279 27.555 6.70384 35.1265C14.309 42.698 26.649 42.698 34.2541 35.1265C40.9634 28.4329 41.7496 18.0815 36.6124 10.5466" stroke="#148160" stroke-width="2" stroke-miterlimit="10" stroke-linecap="round" stroke-linejoin="round"/>
<path d="M30.6152 11.333L31.2368 10.7295" stroke="#148160" stroke-width="2" stroke-miterlimit="10" stroke-linecap="round" stroke-linejoin="round"/>
<path d="M29.4279 12.5215L24.6016 17.3131" stroke="#148160" stroke-width="2" stroke-miterlimit="10" stroke-linecap="round" stroke-linejoin="round"/>
<path d="M24.6005 17.3135L20.2129 21.6845" stroke="#148160" stroke-width="2" stroke-miterlimit="10" stroke-linecap="round" stroke-linejoin="round"/>
<path d="M31.2383 10.7301L33.2127 8.75488" stroke="#148160" stroke-width="2" stroke-miterlimit="10" stroke-linecap="round" stroke-linejoin="round"/>
<path d="M29.4277 12.522L30.616 11.3332" stroke="#148160" stroke-width="2" stroke-miterlimit="10" stroke-linecap="round" stroke-linejoin="round"/>
<path d="M30.5254 10.6377L30.6169 11.3327" stroke="#148160" stroke-width="2" stroke-miterlimit="10" stroke-linecap="round" stroke-linejoin="round"/>
<path d="M35.8086 6.17623V5.13379" stroke="#148160" stroke-width="2" stroke-miterlimit="10" stroke-linecap="round" stroke-linejoin="round"/>
<path d="M32.6816 4.09076L35.8078 1V5.13323" stroke="#148160" stroke-width="2" stroke-miterlimit="10" stroke-linecap="round" stroke-linejoin="round"/>
<path d="M31.4023 5.38921L32.6821 4.0907" stroke="#148160" stroke-width="2" stroke-miterlimit="10" stroke-linecap="round" stroke-linejoin="round"/>
<path d="M31.4022 5.38867L30.0859 6.68716L30.5247 10.6375" stroke="#148160" stroke-width="2" stroke-miterlimit="10" stroke-linecap="round" stroke-linejoin="round"/>
<path d="M30.6152 11.3333L35.277 11.8636L36.5933 10.5469" stroke="#148160" stroke-width="2" stroke-miterlimit="10" stroke-linecap="round" stroke-linejoin="round"/>
<path d="M36.8507 6.17578H35.8086" stroke="#148160" stroke-width="2" stroke-miterlimit="10" stroke-linecap="round" stroke-linejoin="round"/>
<path d="M36.5938 10.5468L40.9996 6.17578H36.8497" stroke="#148160" stroke-width="2" stroke-miterlimit="10" stroke-linecap="round" stroke-linejoin="round"/>
<path d="M30.5254 10.6377L31.2384 10.7291" stroke="#148160" stroke-width="2" stroke-miterlimit="10" stroke-linecap="round" stroke-linejoin="round"/>
</svg>
