<svg width="40" height="42" viewBox="0 0 40 42" fill="none" xmlns="http://www.w3.org/2000/svg">
<path d="M19.6145 4.36948C16.8264 4.32111 14.5863 6.48153 14.5218 9.20624C14.4896 10.6089 15.0697 11.6246 15.8433 12.6726C16.5202 13.5916 17.0198 13.6883 17.3099 15.0587" stroke="#148160" stroke-width="2" stroke-miterlimit="10" stroke-linecap="round" stroke-linejoin="round"/>
<path d="M19.6143 4.36948C22.4024 4.32111 24.6425 6.48153 24.707 9.20624C24.7392 10.6089 24.159 11.6246 23.3855 12.6726C22.7086 13.5916 22.0962 13.6883 21.8222 15.0587" stroke="#148160" stroke-width="2" stroke-miterlimit="10" stroke-linecap="round" stroke-linejoin="round"/>
<path d="M21.8221 15.0428H21.806H17.3901" stroke="#148160" stroke-width="2" stroke-miterlimit="10" stroke-linecap="round" stroke-linejoin="round"/>
<path d="M19.6143 18.4124H20.8069L21.8222 16.7195V15.0428" stroke="#148160" stroke-width="2" stroke-miterlimit="10" stroke-linecap="round" stroke-linejoin="round"/>
<path d="M21.1943 7.02948C21.8873 7.41642 22.3869 8.06132 22.532 8.81908" stroke="#148160" stroke-width="2" stroke-miterlimit="10" stroke-linecap="round" stroke-linejoin="round"/>
<path d="M17.3105 15.0426V16.7193L18.4387 18.4122H19.5668" stroke="#148160" stroke-width="2" stroke-miterlimit="10" stroke-linecap="round" stroke-linejoin="round"/>
<path d="M19.5659 1V2.12858" stroke="#148160" stroke-width="2" stroke-miterlimit="10" stroke-linecap="round" stroke-linejoin="round"/>
<path d="M13.603 3.46686L14.3927 4.25687" stroke="#148160" stroke-width="2" stroke-miterlimit="10" stroke-linecap="round" stroke-linejoin="round"/>
<path d="M11.1206 9.43195H12.2487" stroke="#148160" stroke-width="2" stroke-miterlimit="10" stroke-linecap="round" stroke-linejoin="round"/>
<path d="M13.603 15.3812L14.3927 14.5912" stroke="#148160" stroke-width="2" stroke-miterlimit="10" stroke-linecap="round" stroke-linejoin="round"/>
<path d="M25.5451 15.3812L24.7393 14.5912" stroke="#148160" stroke-width="2" stroke-miterlimit="10" stroke-linecap="round" stroke-linejoin="round"/>
<path d="M28.011 9.43195H26.8828" stroke="#148160" stroke-width="2" stroke-miterlimit="10" stroke-linecap="round" stroke-linejoin="round"/>
<path d="M25.5451 3.46686L24.7393 4.25687" stroke="#148160" stroke-width="2" stroke-miterlimit="10" stroke-linecap="round" stroke-linejoin="round"/>
<path d="M8.73595 28.7308C10.5161 28.7308 11.9592 27.2872 11.9592 25.5063C11.9592 23.7255 10.5161 22.2818 8.73595 22.2818C6.95579 22.2818 5.5127 23.7255 5.5127 25.5063C5.5127 27.2872 6.95579 28.7308 8.73595 28.7308Z" stroke="#148160" stroke-width="2" stroke-miterlimit="10" stroke-linecap="round" stroke-linejoin="round"/>
<path d="M7.44651 33.2451L8.75192 36.7114C9.13872 37.7271 10.1057 38.4043 11.1855 38.4043H15.7464C16.5038 38.4043 17.1163 37.7916 17.1163 37.0338C17.1163 36.3406 16.6005 35.7602 15.9237 35.6796L12.3942 35.2443C12.1363 35.212 11.9268 35.0347 11.8462 34.7767C11.6367 33.9867 11.1532 32.2777 10.6698 31.3103C10.0251 30.0205 9.38046 28.7307 7.12418 28.7307C4.22325 28.7307 3.5786 30.6654 2.93395 33.2451C2.2893 35.8247 1 40.9839 1 40.9839" stroke="#148160" stroke-width="2" stroke-miterlimit="10" stroke-linecap="round" stroke-linejoin="round"/>
<path d="M8.73596 37.1144L8.09131 40.9838" stroke="#148160" stroke-width="2" stroke-miterlimit="10" stroke-linecap="round" stroke-linejoin="round"/>
<path d="M30.5088 37.1144L31.2985 40.9838" stroke="#148160" stroke-width="2" stroke-miterlimit="10" stroke-linecap="round" stroke-linejoin="round"/>
<path d="M13.2485 38.4044H19.695" stroke="#148160" stroke-width="2" stroke-miterlimit="10" stroke-linecap="round" stroke-linejoin="round"/>
<path d="M30.6539 28.7308C32.4341 28.7308 33.8772 27.2872 33.8772 25.5063C33.8772 23.7255 32.4341 22.2818 30.6539 22.2818C28.8738 22.2818 27.4307 23.7255 27.4307 25.5063C27.4307 27.2872 28.8738 28.7308 30.6539 28.7308Z" stroke="#148160" stroke-width="2" stroke-miterlimit="10" stroke-linecap="round" stroke-linejoin="round"/>
<path d="M19.6949 28.7308C21.4751 28.7308 22.9182 27.2872 22.9182 25.5063C22.9182 23.7255 21.4751 22.2818 19.6949 22.2818C17.9148 22.2818 16.4717 23.7255 16.4717 25.5063C16.4717 27.2872 17.9148 28.7308 19.6949 28.7308Z" stroke="#148160" stroke-width="2" stroke-miterlimit="10" stroke-linecap="round" stroke-linejoin="round"/>
<path d="M31.9437 33.2452L30.6383 36.7115C30.2515 37.7273 29.2845 38.4044 28.2047 38.4044H23.6438C22.8863 38.4044 22.2739 37.7918 22.2739 37.034C22.2739 36.3407 22.7897 35.7603 23.4665 35.6797L26.996 35.2444C27.2538 35.2122 27.4634 35.0348 27.5439 34.7768C27.7535 33.9868 28.2369 32.294 28.7204 31.3266C29.3651 30.0368 30.0097 28.747 32.266 28.747C35.1669 28.747 35.8116 30.6817 36.4562 33.2613C37.1009 35.8409 38.3902 41.0001 38.3902 41.0001" stroke="#148160" stroke-width="2" stroke-miterlimit="10" stroke-linecap="round" stroke-linejoin="round"/>
<path d="M26.1413 38.4044H19.6948" stroke="#148160" stroke-width="2" stroke-miterlimit="10" stroke-linecap="round" stroke-linejoin="round"/>
<path d="M14.5376 35.1798V33.2451C14.5376 30.7461 16.8422 28.7307 19.6948 28.7307C22.5474 28.7307 24.852 30.7461 24.852 33.2451V35.1798" stroke="#148160" stroke-width="2" stroke-miterlimit="10" stroke-linecap="round" stroke-linejoin="round"/>
</svg>
