<svg width="38" height="42" viewBox="0 0 38 42" fill="none" xmlns="http://www.w3.org/2000/svg">
<path d="M18.7024 27.3874C20.2963 27.3874 21.5883 26.1021 21.5883 24.5165C21.5883 22.9309 20.2963 21.6455 18.7024 21.6455C17.1085 21.6455 15.8164 22.9309 15.8164 24.5165C15.8164 26.1021 17.1085 27.3874 18.7024 27.3874Z" stroke="#148160" stroke-width="2" stroke-miterlimit="10" stroke-linecap="round" stroke-linejoin="round"/>
<path d="M21.959 31.3223V40.9997" stroke="#148160" stroke-width="2" stroke-miterlimit="10" stroke-linecap="round" stroke-linejoin="round"/>
<path d="M15.5098 40.9997V31.3223" stroke="#148160" stroke-width="2" stroke-miterlimit="10" stroke-linecap="round" stroke-linejoin="round"/>
<path d="M7.77148 40.9997V31.3223" stroke="#148160" stroke-width="2" stroke-miterlimit="10" stroke-linecap="round" stroke-linejoin="round"/>
<path d="M18.7358 27.4033H17.2848C15.2856 27.4033 12.9316 28.0969 12.9316 31.3227V36.1453C12.9316 37.1937 13.8023 38.0485 14.8664 38.0485H15.3501" stroke="#148160" stroke-width="2" stroke-miterlimit="10" stroke-linecap="round" stroke-linejoin="round"/>
<path d="M10.6907 27.3874C12.2845 27.3874 13.5766 26.1021 13.5766 24.5165C13.5766 22.9309 12.2845 21.6455 10.6907 21.6455C9.09679 21.6455 7.80469 22.9309 7.80469 24.5165C7.80469 26.1021 9.09679 27.3874 10.6907 27.3874Z" stroke="#148160" stroke-width="2" stroke-miterlimit="10" stroke-linecap="round" stroke-linejoin="round"/>
<path d="M10.9472 27.4033H9.51231C7.52921 27.4033 5.19141 28.0969 5.19141 31.3227V36.1453C5.19141 37.1937 6.04592 38.0485 7.11002 38.0485H7.5937" stroke="#148160" stroke-width="2" stroke-miterlimit="10" stroke-linecap="round" stroke-linejoin="round"/>
<path d="M29.6992 40.9997V31.3223" stroke="#148160" stroke-width="2" stroke-miterlimit="10" stroke-linecap="round" stroke-linejoin="round"/>
<path d="M26.8118 27.3874C28.4056 27.3874 29.6977 26.1021 29.6977 24.5165C29.6977 22.9309 28.4056 21.6455 26.8118 21.6455C25.2179 21.6455 23.9258 22.9309 23.9258 24.5165C23.9258 26.1021 25.2179 27.3874 26.8118 27.3874Z" stroke="#148160" stroke-width="2" stroke-miterlimit="10" stroke-linecap="round" stroke-linejoin="round"/>
<path d="M26.5215 27.4033H27.9564C29.9395 27.4033 32.2773 28.0969 32.2773 31.3227V36.1453C32.2773 37.1937 31.4228 38.0485 30.3587 38.0485H29.875" stroke="#148160" stroke-width="2" stroke-miterlimit="10" stroke-linecap="round" stroke-linejoin="round"/>
<path d="M18.7344 27.4033H20.1854C22.1846 27.4033 24.5386 28.0969 24.5386 31.3227V36.1453C24.5386 37.1937 23.6679 38.0485 22.6038 38.0485H22.1202" stroke="#148160" stroke-width="2" stroke-miterlimit="10" stroke-linecap="round" stroke-linejoin="round"/>
<path d="M18.7344 40.9995V38.0479" stroke="#148160" stroke-width="2" stroke-miterlimit="10" stroke-linecap="round" stroke-linejoin="round"/>
<path d="M27.7642 10.6777L18.7355 19.0648L13.5762 15.1939" stroke="#148160" stroke-width="2" stroke-miterlimit="10" stroke-linecap="round" stroke-linejoin="round"/>
<path d="M18.7344 3.58105V4.87138" stroke="#148160" stroke-width="2" stroke-miterlimit="10" stroke-linecap="round" stroke-linejoin="round"/>
<path d="M26.475 5.66113L25.8301 6.77404" stroke="#148160" stroke-width="2" stroke-miterlimit="10" stroke-linecap="round" stroke-linejoin="round"/>
<path d="M32.134 11.3223L31.0215 11.9674" stroke="#148160" stroke-width="2" stroke-miterlimit="10" stroke-linecap="round" stroke-linejoin="round"/>
<path d="M34.2136 19.0645H32.9238" stroke="#148160" stroke-width="2" stroke-miterlimit="10" stroke-linecap="round" stroke-linejoin="round"/>
<path d="M3.25781 19.0645H4.54763" stroke="#148160" stroke-width="2" stroke-miterlimit="10" stroke-linecap="round" stroke-linejoin="round"/>
<path d="M5.33789 11.3223L6.45037 11.9674" stroke="#148160" stroke-width="2" stroke-miterlimit="10" stroke-linecap="round" stroke-linejoin="round"/>
<path d="M10.9961 5.66129L11.641 6.77419" stroke="#148160" stroke-width="2" stroke-miterlimit="10" stroke-linecap="round" stroke-linejoin="round"/>
<path d="M34.745 26.371C35.8413 24.0645 36.4701 21.4839 36.4701 18.7419C36.4701 8.93548 28.5377 1 18.735 1C8.9324 1 1 8.93548 1 18.7419C1 21.4677 1.61266 24.0484 2.72513 26.371" stroke="#148160" stroke-width="2" stroke-miterlimit="10" stroke-linecap="round" stroke-linejoin="round"/>
</svg>
